<svg width="1004" height="976" viewBox="0 0 1004 976" fill="none" xmlns="http://www.w3.org/2000/svg">
<g filter="url(#filter0_d_34_180)">
<circle cx="500" cy="475" r="475" fill="url(#paint0_linear_34_180)"/>
<circle cx="500" cy="475" r="460" stroke="#0E004B" stroke-width="30"/>
</g>
<circle cx="502" cy="475" r="157.5" fill="#F8F8F8" stroke="#0E014B" stroke-width="15"/>
<circle cx="502" cy="475" r="95" fill="#F8F8F8" stroke="#0E014B" stroke-width="10"/>
<path d="M952.953 428H982.953V522H952.953V428Z" fill="#AEAEAE"/>
<rect x="24.0469" y="428" width="23" height="94" fill="#F8F8F8"/>
<path d="M306.422 346.969L295.922 355.469L281.422 350.469L261.422 340.469L230.422 315.469L213.922 296.469L189.922 264.469L174.922 239.469L163.422 215.469L157.422 196.969L154.922 188.469L157.824 180.247L158.922 174.969L165.922 164.969L177.922 153.469L192.422 141.469L203.922 131.469L216.922 120.469L236.422 105.969L252.422 95.9688L269.422 85.9688L284.422 77.4688L301.922 70.4688L304.422 83.4688L307.422 98.4688L311.422 117.969L317.422 138.969L322.422 153.969L328.422 168.969L335.922 187.469L344.422 209.469L351.422 229.969L359.922 248.469L369.422 268.969L362.922 279.469L345.922 300.969L331.922 315.469L316.922 334.469L306.422 346.969Z" fill="#A10B35" stroke="#0E014B"/>
<path d="M295.977 354.578C300.982 354.578 368.977 271.078 369.977 270.078" stroke="#0E014B" stroke-width="10"/>
<path d="M369.983 270.085C372.489 268.587 310.073 150.537 302.382 69.284" stroke="#0E014B" stroke-width="10"/>
<path d="M297.247 354.701C203.512 330.568 145.502 184.16 154.48 176.58" stroke="#0E014B" stroke-width="10"/>
<path d="M150.546 182.773C205.342 124.982 238.998 100.459 303.546 67.7732" stroke="#0E014B" stroke-width="3"/>
<path d="M297.5 354.578C297.938 355 370.5 270.578 371.5 270.078" stroke="#0E014B" stroke-width="10"/>
<path d="M303.938 72.5V62.5M154.938 181L155.438 176M365.93 257C365.93 257 373.438 273 371.938 271.5" stroke="#0E014B" stroke-width="7"/>
<path d="M692.922 346.969L703.422 355.469L717.922 350.469L737.922 340.469L768.922 315.469L785.422 296.469L809.422 264.469L824.422 239.469L835.922 215.469L841.922 196.969L844.422 188.469L841.52 180.247L840.422 174.969L833.422 164.969L821.422 153.469L806.922 141.469L795.422 131.469L782.422 120.469L762.922 105.969L746.922 95.9688L729.922 85.9688L714.922 77.4688L697.422 70.4688L694.922 83.4688L691.922 98.4688L687.922 117.969L681.922 138.969L676.922 153.969L670.922 168.969L663.422 187.469L654.922 209.469L647.922 229.969L639.422 248.469L629.922 268.969L636.422 279.469L653.422 300.969L667.422 315.469L682.422 334.469L692.922 346.969Z" fill="#AF0020" fill-opacity="0.9" stroke="#0E014B"/>
<path d="M703.367 354.578C698.362 354.578 630.367 271.078 629.367 270.078" stroke="#0E014B" stroke-width="10"/>
<path d="M629.361 270.085C626.855 268.587 689.271 150.537 696.962 69.284" stroke="#0E014B" stroke-width="10"/>
<path d="M702.097 354.701C795.832 330.568 853.842 184.16 844.863 176.58" stroke="#0E014B" stroke-width="10"/>
<path d="M848.798 182.773C794.002 124.982 760.346 100.459 695.798 67.7732" stroke="#0E014B" stroke-width="3"/>
<path d="M701.844 354.578C701.406 355 628.844 270.578 627.844 270.078" stroke="#0E014B" stroke-width="10"/>
<path d="M695.406 72.5V62.5M844.406 181L843.906 176M633.414 257C633.414 257 625.906 273 627.406 271.5" stroke="#0E014B" stroke-width="7"/>
<rect x="979" y="441" width="23" height="94" fill="#F8F8F8"/>
<defs>
<filter id="filter0_d_34_180" x="25" y="0" width="975" height="975" filterUnits="userSpaceOnUse" color-interpolation-filters="sRGB">
<feFlood flood-opacity="0" result="BackgroundImageFix"/>
<feColorMatrix in="SourceAlpha" type="matrix" values="0 0 0 0 0 0 0 0 0 0 0 0 0 0 0 0 0 0 127 0" result="hardAlpha"/>
<feMorphology radius="5" operator="dilate" in="SourceAlpha" result="effect1_dropShadow_34_180"/>
<feOffset dx="20" dy="20"/>
<feComposite in2="hardAlpha" operator="out"/>
<feColorMatrix type="matrix" values="0 0 0 0 0 0 0 0 0 0 0 0 0 0 0 0 0 0 0.3 0"/>
<feBlend mode="normal" in2="BackgroundImageFix" result="effect1_dropShadow_34_180"/>
<feBlend mode="normal" in="SourceGraphic" in2="effect1_dropShadow_34_180" result="shape"/>
</filter>
<linearGradient id="paint0_linear_34_180" x1="500" y1="0" x2="500" y2="950" gradientUnits="userSpaceOnUse">
<stop offset="0.45" stop-color="#296EE8"/>
<stop offset="0.45" stop-color="#0E004B"/>
<stop offset="0.471154" stop-color="#0E004B"/>
<stop offset="0.55" stop-color="#0E004B"/>
<stop offset="0.5501" stop-color="#F8F8F8"/>
<stop offset="1" stop-color="#F8F8F8"/>
</linearGradient>
</defs>
</svg>
