<svg width="260" height="75" viewBox="0 0 260 75" fill="none" xmlns="http://www.w3.org/2000/svg">
<g clip-path="url(#clip0_144_24)">
<path d="M37.5 71.5C56.2777 71.5 71.5 56.2777 71.5 37.5C71.5 18.7223 56.2777 3.5 37.5 3.5C18.7223 3.5 3.5 18.7223 3.5 37.5C3.5 56.2777 18.7223 71.5 37.5 71.5Z" fill="url(#paint0_linear_144_24)" stroke="black" stroke-width="7"/>
<path d="M37.5 53C46.0604 53 53 46.0604 53 37.5C53 28.9396 46.0604 22 37.5 22C28.9396 22 22 28.9396 22 37.5C22 46.0604 28.9396 53 37.5 53Z" fill="white" stroke="black" stroke-width="4"/>
<path d="M4 37H23" stroke="black" stroke-width="7"/>
<path d="M53 37H72" stroke="black" stroke-width="7"/>
<path d="M37.5 51C44.9558 51 51 44.9558 51 37.5C51 30.0442 44.9558 24 37.5 24C30.0442 24 24 30.0442 24 37.5C24 44.9558 30.0442 51 37.5 51Z" fill="#E40000" stroke="black" stroke-opacity="0.2" stroke-width="3"/>
<path d="M74.5 71.5C93.2777 71.5 108.5 56.2777 108.5 37.5C108.5 18.7223 93.2777 3.5 74.5 3.5C55.7223 3.5 40.5 18.7223 40.5 37.5C40.5 56.2777 55.7223 71.5 74.5 71.5Z" fill="url(#paint1_linear_144_24)" stroke="black" stroke-width="7"/>
<path d="M74.5 53C83.0604 53 90 46.0604 90 37.5C90 28.9396 83.0604 22 74.5 22C65.9396 22 59 28.9396 59 37.5C59 46.0604 65.9396 53 74.5 53Z" fill="white" stroke="black" stroke-width="4"/>
<path d="M41 37H60" stroke="black" stroke-width="7"/>
<path d="M90 37H109" stroke="black" stroke-width="7"/>
<path d="M74.5 51C81.9558 51 88 44.9558 88 37.5C88 30.0442 81.9558 24 74.5 24C67.0442 24 61 30.0442 61 37.5C61 44.9558 67.0442 51 74.5 51Z" fill="#E40000" stroke="black" stroke-opacity="0.2" stroke-width="3"/>
<path d="M111.5 71.5C130.278 71.5 145.5 56.2777 145.5 37.5C145.5 18.7223 130.278 3.5 111.5 3.5C92.7223 3.5 77.5 18.7223 77.5 37.5C77.5 56.2777 92.7223 71.5 111.5 71.5Z" fill="url(#paint2_linear_144_24)" stroke="black" stroke-width="7"/>
<path d="M111.5 53C120.06 53 127 46.0604 127 37.5C127 28.9396 120.06 22 111.5 22C102.94 22 96 28.9396 96 37.5C96 46.0604 102.94 53 111.5 53Z" fill="white" stroke="black" stroke-width="4"/>
<path d="M78 37H97" stroke="black" stroke-width="7"/>
<path d="M127 37H146" stroke="black" stroke-width="7"/>
<path d="M111.5 51C118.956 51 125 44.9558 125 37.5C125 30.0442 118.956 24 111.5 24C104.044 24 98 30.0442 98 37.5C98 44.9558 104.044 51 111.5 51Z" fill="#E40000" stroke="black" stroke-opacity="0.2" stroke-width="3"/>
<path d="M148.5 71.5C167.278 71.5 182.5 56.2777 182.5 37.5C182.5 18.7223 167.278 3.5 148.5 3.5C129.722 3.5 114.5 18.7223 114.5 37.5C114.5 56.2777 129.722 71.5 148.5 71.5Z" fill="url(#paint3_linear_144_24)" stroke="black" stroke-width="7"/>
<path d="M148.5 53C157.06 53 164 46.0604 164 37.5C164 28.9396 157.06 22 148.5 22C139.94 22 133 28.9396 133 37.5C133 46.0604 139.94 53 148.5 53Z" fill="white" stroke="black" stroke-width="4"/>
<path d="M115 37H134" stroke="black" stroke-width="7"/>
<path d="M164 37H183" stroke="black" stroke-width="7"/>
<path d="M148.5 51C155.956 51 162 44.9558 162 37.5C162 30.0442 155.956 24 148.5 24C141.044 24 135 30.0442 135 37.5C135 44.9558 141.044 51 148.5 51Z" fill="#E40000" stroke="black" stroke-opacity="0.2" stroke-width="3"/>
<path d="M185.5 71.5C204.278 71.5 219.5 56.2777 219.5 37.5C219.5 18.7223 204.278 3.5 185.5 3.5C166.722 3.5 151.5 18.7223 151.5 37.5C151.5 56.2777 166.722 71.5 185.5 71.5Z" fill="url(#paint4_linear_144_24)" stroke="black" stroke-width="7"/>
<path d="M185.5 53C194.06 53 201 46.0604 201 37.5C201 28.9396 194.06 22 185.5 22C176.94 22 170 28.9396 170 37.5C170 46.0604 176.94 53 185.5 53Z" fill="white" stroke="black" stroke-width="4"/>
<path d="M152 37H171" stroke="black" stroke-width="7"/>
<path d="M201 37H220" stroke="black" stroke-width="7"/>
<path d="M185.5 51C192.956 51 199 44.9558 199 37.5C199 30.0442 192.956 24 185.5 24C178.044 24 172 30.0442 172 37.5C172 44.9558 178.044 51 185.5 51Z" fill="#E40000" stroke="black" stroke-opacity="0.2" stroke-width="3"/>
<path d="M222.5 71.5C241.278 71.5 256.5 56.2777 256.5 37.5C256.5 18.7223 241.278 3.5 222.5 3.5C203.722 3.5 188.5 18.7223 188.5 37.5C188.5 56.2777 203.722 71.5 222.5 71.5Z" fill="url(#paint5_linear_144_24)" stroke="black" stroke-width="7"/>
<path d="M222.5 53C231.06 53 238 46.0604 238 37.5C238 28.9396 231.06 22 222.5 22C213.94 22 207 28.9396 207 37.5C207 46.0604 213.94 53 222.5 53Z" fill="white" stroke="black" stroke-width="4"/>
<path d="M222.5 51C229.956 51 236 44.9558 236 37.5C236 30.0442 229.956 24 222.5 24C215.044 24 209 30.0442 209 37.5C209 44.9558 215.044 51 222.5 51Z" fill="#E40000" stroke="black" stroke-opacity="0.2" stroke-width="3"/>
<path d="M189 37H208" stroke="black" stroke-width="7"/>
<path d="M238 37H257" stroke="black" stroke-width="7"/>
</g>
<defs>
<linearGradient id="paint0_linear_144_24" x1="37.5" y1="9.86106e-08" x2="37.5" y2="75" gradientUnits="userSpaceOnUse">
<stop stop-color="#FF0000"/>
<stop offset="0.5" stop-color="#FF0000"/>
<stop offset="0.5" stop-color="white"/>
<stop offset="1" stop-color="white"/>
</linearGradient>
<linearGradient id="paint1_linear_144_24" x1="74.5" y1="9.86106e-08" x2="74.5" y2="75" gradientUnits="userSpaceOnUse">
<stop stop-color="#FF0000"/>
<stop offset="0.5" stop-color="#FF0000"/>
<stop offset="0.5" stop-color="white"/>
<stop offset="1" stop-color="white"/>
</linearGradient>
<linearGradient id="paint2_linear_144_24" x1="111.5" y1="9.86106e-08" x2="111.5" y2="75" gradientUnits="userSpaceOnUse">
<stop stop-color="#FF0000"/>
<stop offset="0.5" stop-color="#FF0000"/>
<stop offset="0.5" stop-color="white"/>
<stop offset="1" stop-color="white"/>
</linearGradient>
<linearGradient id="paint3_linear_144_24" x1="148.5" y1="9.86106e-08" x2="148.5" y2="75" gradientUnits="userSpaceOnUse">
<stop stop-color="#FF0000"/>
<stop offset="0.5" stop-color="#FF0000"/>
<stop offset="0.5" stop-color="white"/>
<stop offset="1" stop-color="white"/>
</linearGradient>
<linearGradient id="paint4_linear_144_24" x1="185.5" y1="9.86106e-08" x2="185.5" y2="75" gradientUnits="userSpaceOnUse">
<stop stop-color="#FF0000"/>
<stop offset="0.5" stop-color="#FF0000"/>
<stop offset="0.5" stop-color="white"/>
<stop offset="1" stop-color="white"/>
</linearGradient>
<linearGradient id="paint5_linear_144_24" x1="222.5" y1="9.86106e-08" x2="222.5" y2="75" gradientUnits="userSpaceOnUse">
<stop stop-color="#FF0000"/>
<stop offset="0.5" stop-color="#FF0000"/>
<stop offset="0.5" stop-color="white"/>
<stop offset="1" stop-color="white"/>
</linearGradient>
<clipPath id="clip0_144_24">
<rect width="260" height="75" fill="white"/>
</clipPath>
</defs>
</svg>
