<svg width="260" height="75" viewBox="0 0 260 75" fill="none" xmlns="http://www.w3.org/2000/svg">
<circle cx="37.5" cy="37.5" r="34" fill="url(#paint0_linear_128_152)" stroke="black" stroke-width="7"/>
<circle cx="37.5" cy="37.5" r="15.5" fill="white" stroke="black" stroke-width="4"/>
<path d="M4 37H23" stroke="black" stroke-width="7"/>
<path d="M53 37H72" stroke="black" stroke-width="7"/>
<circle cx="74.5" cy="37.5" r="34" fill="url(#paint1_linear_128_152)" stroke="black" stroke-width="7"/>
<circle cx="74.5" cy="37.5" r="15.5" fill="white" stroke="black" stroke-width="4"/>
<path d="M41 37H60" stroke="black" stroke-width="7"/>
<path d="M90 37H109" stroke="black" stroke-width="7"/>
<circle cx="111.5" cy="37.5" r="34" fill="url(#paint2_linear_128_152)" stroke="black" stroke-width="7"/>
<circle cx="111.5" cy="37.5" r="15.5" fill="white" stroke="black" stroke-width="4"/>
<path d="M78 37H97" stroke="black" stroke-width="7"/>
<path d="M127 37H146" stroke="black" stroke-width="7"/>
<circle cx="148.5" cy="37.5" r="34" fill="url(#paint3_linear_128_152)" stroke="black" stroke-width="7"/>
<circle cx="148.5" cy="37.5" r="15.5" fill="white" stroke="black" stroke-width="4"/>
<path d="M115 37H134" stroke="black" stroke-width="7"/>
<path d="M164 37H183" stroke="black" stroke-width="7"/>
<circle cx="185.5" cy="37.5" r="34" fill="url(#paint4_linear_128_152)" stroke="black" stroke-width="7"/>
<circle cx="185.5" cy="37.5" r="15.5" fill="white" stroke="black" stroke-width="4"/>
<path d="M152 37H171" stroke="black" stroke-width="7"/>
<path d="M201 37H220" stroke="black" stroke-width="7"/>
<circle cx="222.5" cy="37.5" r="34" fill="url(#paint5_linear_128_152)" stroke="black" stroke-width="7"/>
<circle cx="222.5" cy="37.5" r="15.5" fill="white" stroke="black" stroke-width="4"/>
<path d="M189 37H208" stroke="black" stroke-width="7"/>
<path d="M238 37H257" stroke="black" stroke-width="7"/>
<defs>
<linearGradient id="paint0_linear_128_152" x1="37.5" y1="0" x2="37.5" y2="75" gradientUnits="userSpaceOnUse">
<stop stop-color="#FF0000"/>
<stop offset="0.5" stop-color="#FF0000"/>
<stop offset="0.5" stop-color="white"/>
<stop offset="1" stop-color="white"/>
</linearGradient>
<linearGradient id="paint1_linear_128_152" x1="74.5" y1="0" x2="74.5" y2="75" gradientUnits="userSpaceOnUse">
<stop stop-color="#FF0000"/>
<stop offset="0.5" stop-color="#FF0000"/>
<stop offset="0.5" stop-color="white"/>
<stop offset="1" stop-color="white"/>
</linearGradient>
<linearGradient id="paint2_linear_128_152" x1="111.5" y1="0" x2="111.5" y2="75" gradientUnits="userSpaceOnUse">
<stop stop-color="#FF0000"/>
<stop offset="0.5" stop-color="#FF0000"/>
<stop offset="0.5" stop-color="white"/>
<stop offset="1" stop-color="white"/>
</linearGradient>
<linearGradient id="paint3_linear_128_152" x1="148.5" y1="0" x2="148.5" y2="75" gradientUnits="userSpaceOnUse">
<stop stop-color="#FF0000"/>
<stop offset="0.5" stop-color="#FF0000"/>
<stop offset="0.5" stop-color="white"/>
<stop offset="1" stop-color="white"/>
</linearGradient>
<linearGradient id="paint4_linear_128_152" x1="185.5" y1="0" x2="185.5" y2="75" gradientUnits="userSpaceOnUse">
<stop stop-color="#FF0000"/>
<stop offset="0.5" stop-color="#FF0000"/>
<stop offset="0.5" stop-color="white"/>
<stop offset="1" stop-color="white"/>
</linearGradient>
<linearGradient id="paint5_linear_128_152" x1="222.5" y1="0" x2="222.5" y2="75" gradientUnits="userSpaceOnUse">
<stop stop-color="#FF0000"/>
<stop offset="0.5" stop-color="#FF0000"/>
<stop offset="0.5" stop-color="white"/>
<stop offset="1" stop-color="white"/>
</linearGradient>
</defs>
</svg>
